<svg width="745.22" height="581.94" clip-rule="evenodd" fill-rule="evenodd" image-rendering="optimizeQuality" shape-rendering="geometricPrecision" text-rendering="geometricPrecision" version="1.1" xmlns="http://www.w3.org/2000/svg">
 <ellipse transform="rotate(61.408)" cx="433.8" cy="-187.92" rx="248.53" ry="402.16" fill="#e5d9f7"/>
 <g transform="translate(145.5 18.786)" clip-rule="evenodd" fill-rule="evenodd" image-rendering="optimizeQuality" shape-rendering="geometricPrecision">
  <path d="m429.5 121.5v51c-112.39-.494-224.72.006-337 1.5-3.1667 1.833-5.6667 4.333-7.5 7.5-25.665 80.655-51.331 161.32-77 242-.49742 2.646-.66409 5.313-.5 8 2.362 7.029 7.0286 11.695 14 14-9.0453.778-15.545-2.889-19.5-11-.5-108.33-.66667-216.67-.5-325 5.9813-9.9461 12.481-19.613 19.5-29 2.7066-2.4363 5.8733-3.9363 9.5-4.5 66.667-.6667 133.33-.6667 200 0 3.968.9643 7.135 3.1309 9.5 6.5 2.317 6.2322 4.317 12.566 6 19 2.264 2.933 5.098 5.1 8.5 6.5 54.333.333 108.67.667 163 1 5.605 2.769 9.605 6.936 12 12.5z" fill="#d2b4fc" opacity=".999"/>
  <path d="m429.5 172.5c23.002-.167 46.002 0 69 .5 8.417 3.654 12.084 10.154 11 19.5-2.283-6.114-6.616-9.947-13-11.5-134-.667-268-.667-402 0-5.2306 2.232-8.7306 6.065-10.5 11.5-25.054 79.989-50.554 159.66-76.5 239-.16409-2.687.00258-5.354.5-8 25.669-80.678 51.335-161.34 77-242 1.8333-3.167 4.3333-5.667 7.5-7.5 112.28-1.494 224.61-1.994 337-1.5z" fill="#f2f0f5"/>
  <path d="m509.5 192.5c-25.393 80.68-50.893 161.35-76.5 242-2.332 5.664-6.499 9.164-12.5 10.5-133 .5-266 .667-399 .5-6.9714-2.305-11.638-6.971-14-14 25.946-79.344 51.446-159.01 76.5-239 1.7694-5.435 5.2694-9.268 10.5-11.5 134-.667 268-.667 402 0 6.384 1.553 10.717 5.386 13 11.5z" fill="#f2f0f5" opacity=".999"/>
 </g>
</svg>
