<?xml version="1.0" encoding="UTF-8" standalone="no"?>
<!-- Created with Inkscape (http://www.inkscape.org/) -->

<svg
   width="63.786289mm"
   height="63.786289mm"
   viewBox="0 0 63.786288 63.78629"
   version="1.1"
   id="svg5"
   xmlns="http://www.w3.org/2000/svg"
   xmlns:svg="http://www.w3.org/2000/svg">
  <defs
     id="defs2" />
  <g
     id="layer1"
     transform="translate(-145.35869,-146.30372)">
    <g
       id="g2158"
       transform="matrix(1.2107831,0,0,1.2107831,54.426316,55.382176)" />
  </g>
  <path
     id="text1709"
     style="font-style:normal;font-weight:normal;font-size:48.1441px;line-height:1.25;font-family:sans-serif;fill:#8641dd;fill-opacity:1;stroke:none;stroke-width:1.20361"
     d="m 14.623614,15.604678 c -2.375108,0 -4.557447,0.610212 -6.5474034,1.829862 -1.9899563,1.219651 -3.5147109,2.984884 -4.5738811,5.295801 l 5.584672,3.273702 c 1.2196505,-2.631878 3.0971415,-3.94808 5.6327305,-3.94808 1.283843,0 2.327124,0.40166 3.129525,1.204061 0.834498,0.802402 1.251603,1.861129 1.251603,3.177067 0,1.79738 -1.283759,4.044086 -3.851444,6.740156 L 3.7431416,45.020971 v 4.958868 H 26.274583 v -6.403226 h -12.66176 l 6.595463,-6.59598 c 3.691048,-3.691046 5.536613,-7.285366 5.536613,-10.783837 0,-3.241703 -1.091169,-5.809738 -3.273702,-7.703406 -2.182532,-1.925764 -4.798456,-2.888712 -7.847583,-2.888712 z m 16.513204,0.674377 v 33.700784 h 13.384196 c 4.621835,0 8.473628,-1.621049 11.554849,-4.86275 3.11332,-3.241705 4.669999,-7.237683 4.669999,-11.987901 0,-4.750218 -1.556679,-8.746195 -4.669999,-11.987898 -3.081221,-3.241702 -6.933014,-4.862235 -11.554849,-4.862235 z m 6.644039,6.354651 h 6.740157 c 2.920741,0 5.29567,0.979428 7.125147,2.937288 1.829475,1.925766 2.744534,4.444877 2.744534,7.558194 0,3.113321 -0.915059,5.648913 -2.744534,7.606771 -1.829477,1.925765 -4.204406,2.888713 -7.125147,2.888713 h -6.740157 z" />
</svg>
