<?xml version="1.0" encoding="UTF-8"?>
<svg width="381.17" height="550.5" clip-rule="evenodd" fill-rule="evenodd" image-rendering="optimizeQuality" shape-rendering="geometricPrecision" text-rendering="geometricPrecision" version="1.1" xmlns="http://www.w3.org/2000/svg">
 <g clip-rule="evenodd" fill-rule="evenodd" shape-rendering="geometricPrecision">
  <path d="m46.607 166.12c-.22579 116.04.26709 232.07 1.4961 348.08 2.2634 6.5972 6.7634 10.764 13.5 12.5 50.666.5 101.33.6667 152 .5 2.972-2.1411 5.472-4.8078 7.5-8 15.03-21.181 30.196-42.181 45.5-63-.329-14.843.004-29.51 1-44 .58-2.249 1.913-3.915 4-5 .333-.667.667-1.333 1-2v-26c-2.506-1.315-4.339-3.315-5.5-6-.982-26.42-.648-52.754 1-79 1.167-1.833 2.667-3.333 4.5-4.5 17.667-.667 35.333-.667 53 0 2.521 1.558 4.188 3.725 5 6.5h1v-39c-1.586 4.077-4.586 6.577-9 7.5-15.839.828-31.505.661-47-.5-3.83-.985-6.663-3.319-8.5-7-.667-25.667-.667-51.333 0-77 1.083-3.918 3.583-6.252 7.5-7 16.161-1.162 32.495-1.328 49-.5 3.875 1.38 6.542 3.88 8 7.5v-14.076z" fill="#873f30" image-rendering="optimizeQuality" opacity=".993"/>
  <path d="m337.1 244.7c-3.543-7.6212-9.543-12.121-18-13.5-31.071-.1968-62.139-.3-93.207-.3926.01.1592.047.3081.047.4688v219.87c24.387-.5705 48.773-.5829 73.16.051 3.918 1.083 6.252 3.583 7 7.5 1.162 16.161 1.328 32.495.5 49-1.353 3.85-3.853 6.517-7.5 8 7.341.166 14.674 0 22-.5 7.85-2.685 13.184-7.852 16-15.5z" fill="#873f30" image-rendering="optimizeQuality" opacity=".993"/>
  <path d="m213.6 527.2c10.006.1665 20.006-2e-4 30-.5 9.313-10.474 17.647-21.64 25-33.5-.59-1.266-1.09-2.5993-1.5-4-.5-10.995-.667-21.995-.5-33-15.304 20.819-30.47 41.819-45.5 63-2.028 3.1922-4.528 5.8589-7.5 8z" fill="#6c3328" image-rendering="optimizeQuality"/>
  <path d="m83.603 496.2c16.161 1.1615 32.495 1.3282 49 .5 3.125-.9794 5.625-2.8127 7.5-5.5.667-26.667.667-53.333 0-80-1.167-2.5-3-4.333-5.5-5.5-9.661-.5-19.328-.666-29-.5 2.307 1.477 4.14 3.477 5.5 6 .667 26.667.667 53.333 0 80l-4.5 4.5c-7.659.4997-15.326.6664-23 .5z" fill="#a34f41" image-rendering="optimizeQuality"/>
  <path d="m179.6 496.2c16.161 1.1615 32.495 1.3282 49 .5 3.833-1.1667 6.333-3.6667 7.5-7.5.973-26.396.64-52.729-1-79-1.167-1.833-2.667-3.333-4.5-4.5-9.994-.5-19.994-.666-30-.5 3.057 1.895 5.223 4.562 6.5 8 .667 25.333.667 50.667 0 76-1.261 2.7114-3.094 4.878-5.5 6.5-7.326.4997-14.659.6663-22 .5z" fill="#a24e40" image-rendering="optimizeQuality"/>
  <path d="m83.603 496.2c7.674.1664 15.341-3e-4 23-.5l4.5-4.5c.667-26.667.667-53.333 0-80-1.36-2.523-3.193-4.523-5.5-6-7.674-.166-15.341 0-23 .5-2.5 1.167-4.333 3-5.5 5.5-.667 26.667-.667 53.333 0 80 1.777 2.2899 3.944 3.9566 6.5 5z" fill="#b95c4e" image-rendering="optimizeQuality"/>
  <path d="m179.6 496.2c7.341.1663 14.674-3e-4 22-.5 2.406-1.622 4.239-3.7886 5.5-6.5.667-25.333.667-50.667 0-76-1.277-3.438-3.443-6.105-6.5-8-7.674-.166-15.341 0-23 .5-2.881 1.251-4.714 3.417-5.5 6.5-.667 26-.667 52 0 78 1.48 3.3172 3.98 5.3172 7.5 6z" fill="#b95c4e" image-rendering="optimizeQuality"/>
  <path d="m268.6 493.2c10.879-13.402 21.046-27.402 30.5-42 1.111-15.321 1.944-30.654 2.5-46h-29c-.333.667-.667 1.333-1 2 .241 14.361-.259 28.694-1.5 43-.667 1.3333-1.333 2.6667-2 4-.5-13.996-.667-27.996-.5-42-.996 14.49-1.329 29.157-1 44-.167 11.005 0 22.005.5 33 .41 1.4007.91 2.734 1.5 4z" fill="#a24e40" image-rendering="optimizeQuality"/>
  <path d="m271.6 407.2c-2.087 1.085-3.42 2.751-4 5-.167 14.004 0 28.004.5 42 .667-1.3333 1.333-2.6667 2-4 1.241-14.306 1.741-28.639 1.5-43z" fill="#b85c4e" image-rendering="optimizeQuality"/>
  <path d="m272.6 405.2h29c-.11-8.025.224-16.025 1-24-10.052.284-20.052-.05-30-1v25z" fill="#6d3328" image-rendering="optimizeQuality"/>
  <path d="m84.603 380.2c7.008.166 14.008 0 21-.5 1.786-.785 3.286-1.951 4.5-3.5 1.15-13.743 1.65-27.576 1.5-41.5.15-13.924-.35-27.757-1.5-41.5-1.214-1.549-2.714-2.715-4.5-3.5-6.992-.5-13.992-.666-21-.5-3.52.683-6.02 2.683-7.5 6-.667 26.333-.667 52.667 0 79 1.512 3.357 4.012 5.357 7.5 6z" fill="#b95c4e" image-rendering="optimizeQuality"/>
  <path d="m84.603 380.2c7.826.666 15.826 1 24 1 9.071.125 18.071-.375 27-1.5 1.878-1.543 3.378-3.376 4.5-5.5.667-26.333.667-52.667 0-79-1.122-2.124-2.622-3.957-4.5-5.5-8.929-1.125-17.929-1.625-27-1.5-8.174 0-16.174.334-24 1 7.008-.166 14.008 0 21 .5 1.786.785 3.286 1.951 4.5 3.5 1.15 13.743 1.65 27.576 1.5 41.5.15 13.924-.35 27.757-1.5 41.5-1.214 1.549-2.714 2.715-4.5 3.5-6.992.5-13.992.666-21 .5z" fill="#a24e41" image-rendering="optimizeQuality"/>
  <path d="m179.6 380.2c7.341.166 14.674 0 22-.5 1.833-1.167 3.333-2.667 4.5-4.5 1.15-13.409 1.65-26.909 1.5-40.5.15-13.591-.35-27.091-1.5-40.5-1.543-1.878-3.376-3.378-5.5-4.5-6.992-.5-13.992-.666-21-.5-3.917.748-6.417 3.082-7.5 7-.667 26-.667 52 0 78 1.48 3.317 3.98 5.317 7.5 6z" fill="#b95c4e" image-rendering="optimizeQuality"/>
  <path d="m179.6 380.2c16.161 1.162 32.495 1.328 49 .5 3.833-1.167 6.333-3.667 7.5-7.5.667-25.333.667-50.667 0-76-.833-4.833-3.667-7.667-8.5-8.5-16.172-.828-32.172-.661-48 .5 7.008-.166 14.008 0 21 .5 2.124 1.122 3.957 2.622 5.5 4.5 1.15 13.409 1.65 26.909 1.5 40.5.15 13.591-.35 27.091-1.5 40.5-1.167 1.833-2.667 3.333-4.5 4.5-7.326.5-14.659.666-22 .5z" fill="#a24e40" image-rendering="optimizeQuality"/>
  <path d="m274.1 379.2c7.341.166 14.674 0 22-.5 1.833-1.167 3.333-2.667 4.5-4.5 1.15-13.409 1.65-26.909 1.5-40.5.15-13.591-.35-27.091-1.5-40.5-1.543-1.878-3.376-3.378-5.5-4.5-6.992-.5-13.992-.666-21-.5-3.917.748-6.417 3.082-7.5 7-.667 26-.667 52 0 78 1.48 3.317 3.98 5.317 7.5 6z" fill="#b95c4e" image-rendering="optimizeQuality"/>
  <path d="m274.1 379.2c16.161 1.162 32.495 1.328 49 .5 3.833-1.167 6.333-3.667 7.5-7.5.667-25.333.667-50.667 0-76-.833-4.833-3.667-7.667-8.5-8.5-16.172-.828-32.172-.661-48 .5 7.008-.166 14.008 0 21 .5 2.124 1.122 3.957 2.622 5.5 4.5 1.15 13.409 1.65 26.909 1.5 40.5.15 13.591-.35 27.091-1.5 40.5-1.167 1.833-2.667 3.333-4.5 4.5-7.326.5-14.659.666-22 .5z" fill="#a24e40" image-rendering="optimizeQuality"/>
  <path d="m331.6 166.12v285.72c9.042-5.6247 17.876-11.814 26.5-18.568.667-1.904 1.333-3.8089 2-5.7129.45897-87.145.57892-174.29.40625-261.44z" fill="#6c3328" image-rendering="optimizeQuality" stroke-width="1.1951"/>
  <path d="m84.603 264.2c7.008.166 14.008 0 21-.5 1.786-.785 3.286-1.951 4.5-3.5 1.15-13.743 1.65-27.576 1.5-41.5.15-13.924-.35-27.757-1.5-41.5-1.214-1.549-2.714-2.715-4.5-3.5-7.326-.5-14.659-.666-22-.5-2.928 1.091-5.094 3.091-6.5 6-.667 26.333-.667 52.667 0 79 1.48 3.317 3.98 5.317 7.5 6z" fill="#b95c4e" image-rendering="optimizeQuality"/>
  <path d="m84.603 264.2c15.828 1.161 31.828 1.328 48 .5 3.437-1.105 5.937-3.272 7.5-6.5.667-26.333.667-52.667 0-79-1.388-3.445-3.888-5.611-7.5-6.5-16.505-.828-32.839-.662-49 .5 7.341-.166 14.674 0 22 .5 1.786.785 3.286 1.951 4.5 3.5 1.15 13.743 1.65 27.576 1.5 41.5.15 13.924-.35 27.757-1.5 41.5-1.214 1.549-2.714 2.715-4.5 3.5-6.992.5-13.992.666-21 .5z" fill="#a24e40" image-rendering="optimizeQuality"/>
  <path d="m180.6 264.2c6.675.166 13.342 0 20-.5 2.124-1.122 3.957-2.622 5.5-4.5 1.15-13.409 1.65-26.909 1.5-40.5.15-13.591-.35-27.091-1.5-40.5-1.167-1.833-2.667-3.333-4.5-4.5-7.326-.5-14.659-.666-22-.5-3.943.776-6.443 3.109-7.5 7-.667 26-.667 52 0 78 1.605 3.776 4.438 5.776 8.5 6z" fill="#b95c4e" image-rendering="optimizeQuality"/>
  <path d="m180.6 264.2c15.495 1.161 31.161 1.328 47 .5 4.5-1.167 7.333-4 8.5-8.5.667-25 .667-50 0-75-.73-4.396-3.23-7.23-7.5-8.5-16.505-.828-32.839-.662-49 .5 7.341-.166 14.674 0 22 .5 1.833 1.167 3.333 2.667 4.5 4.5 1.15 13.409 1.65 26.909 1.5 40.5.15 13.591-.35 27.091-1.5 40.5-1.543 1.878-3.376 3.378-5.5 4.5-6.658.5-13.325.666-20 .5z" fill="#a24e40" image-rendering="optimizeQuality"/>
  <path d="m275.6 264.2c7.008.166 14.008 0 21-.5 2.881-1.251 4.714-3.417 5.5-6.5.667-25.667.667-51.333 0-77-.786-3.083-2.619-5.249-5.5-6.5-7.326-.5-14.659-.666-22-.5-3.917.748-6.417 3.082-7.5 7-.667 25.667-.667 51.333 0 77 1.837 3.681 4.67 6.015 8.5 7z" fill="#b95c4e" image-rendering="optimizeQuality"/>
  <path d="m275.6 264.2c15.495 1.161 31.161 1.328 47 .5 4.414-.923 7.414-3.423 9-7.5v-77c-1.458-3.62-4.125-6.12-8-7.5-16.505-.828-32.839-.662-49 .5 7.341-.166 14.674 0 22 .5 2.881 1.251 4.714 3.417 5.5 6.5.667 25.667.667 51.333 0 77-.786 3.083-2.619 5.249-5.5 6.5-6.992.5-13.992.666-21 .5z" fill="#a24e40" image-rendering="optimizeQuality"/>
  <path d="m12.612 13.86c-7.4406 3.9082-11.645 10.119-12.612 18.633 1.7362 41.173 3.5759 82.339 5.4951 123.5l284.66-13.811-1.29-26.588c-1.047 2.8941-2.9397 5.1545-5.678 6.7831-9.958.98373-19.938 1.6341-29.941 1.9532-7.3243.52155-14.657.71111-21.998.56672-2.9024-1.361-5.1718-3.4204-6.8074-6.1774-1.91-25.605-3.1538-51.24-3.7314-76.91.89186-3.9659 3.2758-6.4183 7.152-7.3552 16.086-1.9438 32.392-2.9012 48.918-2.874 3.911 1.1648 6.6961 3.5327 8.354 7.1035-.18994-7.3404-.7111-14.657-1.5655-21.95-3.0623-7.7107-8.4817-12.788-16.257-15.23z" fill="#873f30" image-rendering="optimizeQuality" opacity=".993"/>
  <path d="m267.31 1.5022c7.8339 3.6468 13.364 11.006 16.589 22.076 1.0065 10.427 1.6799 20.882 2.0222 31.363l4.2326 87.239 28.875-1.3909c-2.0235-40.109-4.0754-79.94-6.2328-120.04-2.7513-10.01-7.5921-16.926-14.522-20.746z" fill="#6c3328" image-rendering="optimizeQuality" stroke-width="1.1951"/>
  <path d="m63.47 133.54c2.2327-1.5871 3.9666-3.6735 5.2028-6.2595-.60989-26.334-1.886-52.637-3.8284-78.907-1.2236-2.0671-2.8107-3.8253-4.7612-5.2755-7.6742-.12826-15.34.07748-22.997.61517-2.8717 1.2316-4.9382 3.3342-6.2016 6.3079.60989 26.334 1.886 52.637 3.8284 78.907 1.2868 2.4405 3.2065 4.1825 5.7601 5.227 7.6742.12825 15.34-.0775 22.997-.61518z" fill="#b95c4e" image-rendering="optimizeQuality"/>
  <path d="m63.47 133.54c9.6687-.3029 19.316-.93717 28.942-1.9048 2.4405-1.2868 4.1825-3.2064 5.227-5.7601-.62607-26.668-1.9183-53.303-3.8768-79.906-1.3891-2.817-3.6414-4.5429-6.7589-5.1785-16.858-.01105-33.498.96244-49.917 2.9224 7.6569-.53769 15.323-.74343 22.997-.61517 1.9506 1.4502 3.5376 3.2083 4.7612 5.2755 1.9423 26.27 3.2185 52.573 3.8284 78.907-1.2361 2.5859-2.9701 4.6724-5.2028 6.2595z" fill="#a34f41" image-rendering="optimizeQuality"/>
  <path d="m157.36 128.98c3.5451-1.6317 5.9129-4.4167 7.1035-8.354-.56143-25.336-1.7891-50.64-3.683-75.911-.93448-3.0413-2.8703-5.1159-5.8085-6.2258-7.6742-.12826-15.34.07748-22.997.61517-2.8916 1.2556-4.9581 3.3582-6.2016 6.3079.60988 26.334 1.886 52.637 3.8284 78.907 1.2868 2.4405 3.2064 4.1825 5.7601 5.227 7.3416.1444 14.674-.0452 21.998-.56671z" fill="#b95c4e" image-rendering="optimizeQuality"/>
  <path d="m157.36 128.98c10.335-.33522 20.648-1.0018 30.939-2.0017 1.4255-1.5709 2.8511-3.1418 4.2766-4.7128.36497-26.32-.57852-52.638-2.8295-78.956-1.3514-3.7719-3.9696-6.1479-7.8546-7.1277-16.858-.01105-33.498.96244-49.917 2.9224 7.6569-.53769 15.323-.74343 22.997-.61517 2.9382 1.1099 4.874 3.1845 5.8085 6.2258 1.8939 25.271 3.1216 50.575 3.683 75.911-1.1906 3.9373-3.5584 6.7223-7.1035 8.354z" fill="#a24e40" image-rendering="optimizeQuality"/>
  <path d="m253.25 124.33c2.9027-1.6236 4.9531-4.0588 6.1531-7.3068-.59375-26.002-1.8537-51.971-3.7799-77.908-1.2868-2.4405-3.2064-4.1825-5.7601-5.227-7.3416-.14439-14.674.04516-21.998.56671-3.8762.93694-6.2601 3.3893-7.152 7.3552.57762 25.669 1.8214 51.305 3.7314 76.91 1.6355 2.757 3.905 4.8164 6.8074 6.1774 7.3416.14439 14.674-.0452 21.998-.56671z" fill="#b95c4e" image-rendering="optimizeQuality"/>
  <path d="m253.25 124.33c10.002-.31909 19.982-.9695 29.941-1.9532 2.7383-1.6286 4.631-3.889 5.678-6.7831-1.2438-25.637-2.4876-51.273-3.7314-76.91-1.658-3.5708-4.443-5.9387-8.354-7.1035-16.526-.02719-32.832.93016-48.918 2.874 7.3243-.52155 14.657-.71111 21.998-.56671 2.5536 1.0445 4.4733 2.7865 5.7601 5.227 1.9262 25.937 3.1862 51.907 3.7799 77.908-1.2 3.248-3.2504 5.6832-6.1531 7.3068z" fill="#a34f41" image-rendering="optimizeQuality"/>
  <path d="m46.456 249.76c6.9892 1.5974 13.822 3.3321 20.496 5.2032-7.5513 17.369-14.563 35.06-21.036 53.072-2.8889 14.014 1.9655 24.594 14.563 31.739 31.148 9.6112 62.072 19.497 92.773 29.658-13.808 5.2323-28.192 7.4863-43.15 6.7641-24.437-7.9161-48.889-15.721-73.355-23.414-7.0757-1.5235-13.908-3.7785-20.496-6.7641-2.2572-1.9283-3.3359-4.3561-3.2363-7.2844 10.425-30.004 21.573-59.662 33.441-88.974z" fill="#d7d3d6" image-rendering="optimizeQuality" opacity=".993" stroke-width="1.0595"/>
  <path d="m66.498 254.96c5.6332 1.0406 11.268 2.0813 16.901 3.1219 0 .69409.35175 1.0406 1.0563 1.0406 27.155 6.428 54.267 13.018 81.335 19.772 29.775 7.4197 59.703 14.704 89.785 21.853 5.3586 2.0136 10.992 3.4008 16.901 4.1625 8.9584 2.7285 18.112 5.1563 27.464 7.2844 11.576 2.9377 23.195 5.7131 34.858 8.325 8.6616 2.5662 17.464 4.6474 26.407 6.2438 6.4983 14.888 13.011 29.805 19.541 44.747 1.7461 8.8589-1.951 13.021-11.091 12.488-49.465-10.84-99.111-20.899-148.94-30.178-23.318 4.8764-46.556 10.08-69.716 15.609-30.061-10.161-60.342-20.047-90.841-29.658-12.335-7.145-17.089-17.725-14.26-31.739 6.3378-18.012 13.204-35.703 20.598-53.072z" fill="#e7e5e7" image-rendering="optimizeQuality" opacity=".999" stroke-width="1.0484"/>
  <path d="m36.748 352.78c24.466 7.6934 48.918 15.498 73.355 23.414 14.958.72219 29.342-1.5318 43.15-6.7641 23.652-5.5299 47.384-10.733 71.198-15.609 50.886 9.2793 101.59 19.338 152.1 30.178v16.65c-50.122-9.8131-100.28-19.525-150.49-29.138-2.6969.17378-5.3938.34653-8.0906.52031-30.533 7.4499-61.097 14.734-91.694 21.853-5.3938.6941-10.788.6941-16.181 0-11.639-3.048-23.145-6.5175-34.52-10.406-9.9331-.49014-16.585 3.8462-19.957 13.008-.53938 51.336-.71953 102.67-.53938 154.01h-6.4725c-6.3808-2.8732-10.156-7.7298-11.327-14.569-.53938-61.05-.71953-122.1-.53938-183.15z" fill="#c176ff" image-rendering="optimizeQuality" opacity=".981" stroke-width="1.0595"/>
  <path d="m376.55 400.65c.18016 45.789 0 91.576-.53937 137.36-2.0885 5.6527-5.8641 9.8152-11.327 12.488h-309.6c-.18015-51.338 0-102.68.53938-154.01 3.3722-9.1617 10.024-13.498 19.957-13.008 11.375 3.8888 22.881 7.3583 34.52 10.406 5.3938.6941 10.788.6941 16.181 0 30.597-7.1189 61.161-14.403 91.694-21.853 2.6969-.17378 5.3938-.34653 8.0906-.52031 50.202 9.6123 100.36 19.324 150.49 29.138z" fill="#df91ff" image-rendering="optimizeQuality" opacity=".999" stroke-width="1.0595"/>
 </g>
</svg>
