<?xml version="1.0" encoding="UTF-8"?>
<svg width="375.3" height="524.31" clip-rule="evenodd" fill-rule="evenodd" image-rendering="optimizeQuality" shape-rendering="geometricPrecision" text-rendering="geometricPrecision" version="1.1" xmlns="http://www.w3.org/2000/svg">
 <g clip-rule="evenodd" fill-rule="evenodd" shape-rendering="geometricPrecision">
  <path d="m200.59 501c2.972-2.1411 5.472-4.8078 7.5-8 15.03-21.181 30.196-42.181 45.5-63-.329-14.843.004-29.51 1-44 .58-2.249 1.913-3.915 4-5 .333-.667.667-1.333 1-2v-25-1c-2.506-1.315-4.339-3.315-5.5-6-.982-26.42-.648-52.754 1-79 1.167-1.833 2.667-3.333 4.5-4.5 17.667-.667 35.333-.667 53 0 2.521 1.558 4.188 3.725 5 6.5h1v-39c-1.586 4.077-4.586 6.577-9 7.5-15.839.828-31.505.661-47-.5-3.83-.985-6.663-3.319-8.5-7-.667-25.667-.667-51.333 0-77 1.083-3.918 3.583-6.252 7.5-7 16.161-1.162 32.495-1.328 49-.5 3.875 1.38 6.542 3.88 8 7.5v-39c-1.186 2.84-3.186 5.006-6 6.5-9.994.5-19.994.666-30 .5-7.341.166-14.674 0-22-.5-2.833-1.5-5-3.667-6.5-6.5-.667-25.667-.667-51.333 0-77 1.083-3.918 3.583-6.252 7.5-7 16.161-1.162 32.495-1.328 49-.5 3.85 1.353 6.517 3.853 8 7.5.166-7.341 0-14.674-.5-22-2.685-7.85-7.852-13.184-15.5-16h-255c-7.6212 3.543-12.121 9.543-13.5 18-.9928 156.7-.6594 313.37 1 470 2.2634 6.5972 6.7634 10.764 13.5 12.5 50.666.5 101.33.6667 152 .5z" fill="#873f30" image-rendering="optimizeQuality" opacity=".993"/>
  <path d="m324.09 218.5c-3.543-7.6212-9.543-12.121-18-13.5-31.071-.1968-62.139-.3-93.207-.3926.01.1592.047.3081.047.4688v219.87c24.387-.5705 48.773-.5829 73.16.051 3.918 1.083 6.252 3.583 7 7.5 1.162 16.161 1.328 32.495.5 49-1.353 3.85-3.853 6.517-7.5 8 7.341.166 14.674 0 22-.5 7.85-2.685 13.184-7.852 16-15.5z" fill="#873f30" image-rendering="optimizeQuality" opacity=".993"/>
  <path d="m200.59 501c10.006.1665 20.006-2e-4 30-.5 9.313-10.474 17.647-21.64 25-33.5-.59-1.266-1.09-2.5993-1.5-4-.5-10.995-.667-21.995-.5-33-15.304 20.819-30.47 41.819-45.5 63-2.028 3.1922-4.528 5.8589-7.5 8z" fill="#6c3328" image-rendering="optimizeQuality"/>
  <path d="m70.594 470c16.161 1.1615 32.495 1.3282 49 .5 3.125-.9794 5.625-2.8127 7.5-5.5.667-26.667.667-53.333 0-80-1.167-2.5-3-4.333-5.5-5.5-9.661-.5-19.328-.666-29-.5 2.307 1.477 4.14 3.477 5.5 6 .667 26.667.667 53.333 0 80l-4.5 4.5c-7.659.4997-15.326.6664-23 .5z" fill="#a34f41" image-rendering="optimizeQuality"/>
  <path d="m166.59 470c16.161 1.1615 32.495 1.3282 49 .5 3.833-1.1667 6.333-3.6667 7.5-7.5.973-26.396.64-52.729-1-79-1.167-1.833-2.667-3.333-4.5-4.5-9.994-.5-19.994-.666-30-.5 3.057 1.895 5.223 4.562 6.5 8 .667 25.333.667 50.667 0 76-1.261 2.7114-3.094 4.878-5.5 6.5-7.326.4997-14.659.6663-22 .5z" fill="#a24e40" image-rendering="optimizeQuality"/>
  <path d="m70.594 470c7.674.1664 15.341-3e-4 23-.5l4.5-4.5c.667-26.667.667-53.333 0-80-1.36-2.523-3.193-4.523-5.5-6-7.674-.166-15.341 0-23 .5-2.5 1.167-4.333 3-5.5 5.5-.667 26.667-.667 53.333 0 80 1.777 2.2899 3.944 3.9566 6.5 5z" fill="#b95c4e" image-rendering="optimizeQuality"/>
  <path d="m166.59 470c7.341.1663 14.674-3e-4 22-.5 2.406-1.622 4.239-3.7886 5.5-6.5.667-25.333.667-50.667 0-76-1.277-3.438-3.443-6.105-6.5-8-7.674-.166-15.341 0-23 .5-2.881 1.251-4.714 3.417-5.5 6.5-.667 26-.667 52 0 78 1.48 3.3172 3.98 5.3172 7.5 6z" fill="#b95c4e" image-rendering="optimizeQuality"/>
  <path d="m255.59 467c10.879-13.402 21.046-27.402 30.5-42 1.111-15.321 1.944-30.654 2.5-46h-29c-.333.667-.667 1.333-1 2 .241 14.361-.259 28.694-1.5 43-.667 1.3333-1.333 2.6667-2 4-.5-13.996-.667-27.996-.5-42-.996 14.49-1.329 29.157-1 44-.167 11.005 0 22.005.5 33 .41 1.4007.91 2.734 1.5 4z" fill="#a24e40" image-rendering="optimizeQuality"/>
  <path d="m258.59 381c-2.087 1.085-3.42 2.751-4 5-.167 14.004 0 28.004.5 42 .667-1.3333 1.333-2.6667 2-4 1.241-14.306 1.741-28.639 1.5-43z" fill="#b85c4e" image-rendering="optimizeQuality"/>
  <path d="m259.59 379h29c-.11-8.025.224-16.025 1-24-10.052.284-20.052-.05-30-1v25z" fill="#6d3328" image-rendering="optimizeQuality"/>
  <path d="m71.594 354c7.008.166 14.008 0 21-.5 1.786-.785 3.286-1.951 4.5-3.5 1.15-13.743 1.65-27.576 1.5-41.5.15-13.924-.35-27.757-1.5-41.5-1.214-1.549-2.714-2.715-4.5-3.5-6.992-.5-13.992-.666-21-.5-3.52.683-6.02 2.683-7.5 6-.667 26.333-.667 52.667 0 79 1.512 3.357 4.012 5.357 7.5 6z" fill="#b95c4e" image-rendering="optimizeQuality"/>
  <path d="m71.594 354c7.826.666 15.826 1 24 1 9.071.125 18.071-.375 27-1.5 1.878-1.543 3.378-3.376 4.5-5.5.667-26.333.667-52.667 0-79-1.122-2.124-2.622-3.957-4.5-5.5-8.929-1.125-17.929-1.625-27-1.5-8.174 0-16.174.334-24 1 7.008-.166 14.008 0 21 .5 1.786.785 3.286 1.951 4.5 3.5 1.15 13.743 1.65 27.576 1.5 41.5.15 13.924-.35 27.757-1.5 41.5-1.214 1.549-2.714 2.715-4.5 3.5-6.992.5-13.992.666-21 .5z" fill="#a24e41" image-rendering="optimizeQuality"/>
  <path d="m166.59 354c7.341.166 14.674 0 22-.5 1.833-1.167 3.333-2.667 4.5-4.5 1.15-13.409 1.65-26.909 1.5-40.5.15-13.591-.35-27.091-1.5-40.5-1.543-1.878-3.376-3.378-5.5-4.5-6.992-.5-13.992-.666-21-.5-3.917.748-6.417 3.082-7.5 7-.667 26-.667 52 0 78 1.48 3.317 3.98 5.317 7.5 6z" fill="#b95c4e" image-rendering="optimizeQuality"/>
  <path d="m166.59 354c16.161 1.162 32.495 1.328 49 .5 3.833-1.167 6.333-3.667 7.5-7.5.667-25.333.667-50.667 0-76-.833-4.833-3.667-7.667-8.5-8.5-16.172-.828-32.172-.661-48 .5 7.008-.166 14.008 0 21 .5 2.124 1.122 3.957 2.622 5.5 4.5 1.15 13.409 1.65 26.909 1.5 40.5.15 13.591-.35 27.091-1.5 40.5-1.167 1.833-2.667 3.333-4.5 4.5-7.326.5-14.659.666-22 .5z" fill="#a24e40" image-rendering="optimizeQuality"/>
  <path d="m261.09 353c7.341.166 14.674 0 22-.5 1.833-1.167 3.333-2.667 4.5-4.5 1.15-13.409 1.65-26.909 1.5-40.5.15-13.591-.35-27.091-1.5-40.5-1.543-1.878-3.376-3.378-5.5-4.5-6.992-.5-13.992-.666-21-.5-3.917.748-6.417 3.082-7.5 7-.667 26-.667 52 0 78 1.48 3.317 3.98 5.317 7.5 6z" fill="#b95c4e" image-rendering="optimizeQuality"/>
  <path d="m261.09 353c16.161 1.162 32.495 1.328 49 .5 3.833-1.167 6.333-3.667 7.5-7.5.667-25.333.667-50.667 0-76-.833-4.833-3.667-7.667-8.5-8.5-16.172-.828-32.172-.661-48 .5 7.008-.166 14.008 0 21 .5 2.124 1.122 3.957 2.622 5.5 4.5 1.15 13.409 1.65 26.909 1.5 40.5.15 13.591-.35 27.091-1.5 40.5-1.167 1.833-2.667 3.333-4.5 4.5-7.326.5-14.659.666-22 .5z" fill="#a24e40" image-rendering="optimizeQuality"/>
  <path d="m318.59 425.64c9.042-5.6247 17.876-11.814 26.5-18.568.667-1.904 1.333-3.8093 2-5.7133.667-126.65.667-253.29 0-379.93-2.263-10.131-6.763-17.273-13.5-21.425h-31c7.648 4.0222 12.815 11.641 15.5 22.853.5 10.464.666 20.938.5 31.423v109.98 55.705 109.98 55.705 39.993z" fill="#6c3328" image-rendering="optimizeQuality" stroke-width="1.1951"/>
  <path d="m71.594 238c7.008.166 14.008 0 21-.5 1.786-.785 3.286-1.951 4.5-3.5 1.15-13.743 1.65-27.576 1.5-41.5.15-13.924-.35-27.757-1.5-41.5-1.214-1.549-2.714-2.715-4.5-3.5-7.326-.5-14.659-.666-22-.5-2.928 1.091-5.094 3.091-6.5 6-.667 26.333-.667 52.667 0 79 1.48 3.317 3.98 5.317 7.5 6z" fill="#b95c4e" image-rendering="optimizeQuality"/>
  <path d="m71.594 238c15.828 1.161 31.828 1.328 48 .5 3.437-1.105 5.937-3.272 7.5-6.5.667-26.333.667-52.667 0-79-1.388-3.445-3.888-5.611-7.5-6.5-16.505-.828-32.839-.662-49 .5 7.341-.166 14.674 0 22 .5 1.786.785 3.286 1.951 4.5 3.5 1.15 13.743 1.65 27.576 1.5 41.5.15 13.924-.35 27.757-1.5 41.5-1.214 1.549-2.714 2.715-4.5 3.5-6.992.5-13.992.666-21 .5z" fill="#a24e40" image-rendering="optimizeQuality"/>
  <path d="m167.59 238c6.675.166 13.342 0 20-.5 2.124-1.122 3.957-2.622 5.5-4.5 1.15-13.409 1.65-26.909 1.5-40.5.15-13.591-.35-27.091-1.5-40.5-1.167-1.833-2.667-3.333-4.5-4.5-7.326-.5-14.659-.666-22-.5-3.943.776-6.443 3.109-7.5 7-.667 26-.667 52 0 78 1.605 3.776 4.438 5.776 8.5 6z" fill="#b95c4e" image-rendering="optimizeQuality"/>
  <path d="m167.59 238c15.495 1.161 31.161 1.328 47 .5 4.5-1.167 7.333-4 8.5-8.5.667-25 .667-50 0-75-.73-4.396-3.23-7.23-7.5-8.5-16.505-.828-32.839-.662-49 .5 7.341-.166 14.674 0 22 .5 1.833 1.167 3.333 2.667 4.5 4.5 1.15 13.409 1.65 26.909 1.5 40.5.15 13.591-.35 27.091-1.5 40.5-1.543 1.878-3.376 3.378-5.5 4.5-6.658.5-13.325.666-20 .5z" fill="#a24e40" image-rendering="optimizeQuality"/>
  <path d="m262.59 238c7.008.166 14.008 0 21-.5 2.881-1.251 4.714-3.417 5.5-6.5.667-25.667.667-51.333 0-77-.786-3.083-2.619-5.249-5.5-6.5-7.326-.5-14.659-.666-22-.5-3.917.748-6.417 3.082-7.5 7-.667 25.667-.667 51.333 0 77 1.837 3.681 4.67 6.015 8.5 7z" fill="#b95c4e" image-rendering="optimizeQuality"/>
  <path d="m262.59 238c15.495 1.161 31.161 1.328 47 .5 4.414-.923 7.414-3.423 9-7.5v-77c-1.458-3.62-4.125-6.12-8-7.5-16.505-.828-32.839-.662-49 .5 7.341-.166 14.674 0 22 .5 2.881 1.251 4.714 3.417 5.5 6.5.667 25.667.667 51.333 0 77-.786 3.083-2.619 5.249-5.5 6.5-6.992.5-13.992.666-21 .5z" fill="#a24e40" image-rendering="optimizeQuality"/>
  <path d="m92.594 122c2.307-1.477 4.14-3.477 5.5-6 .667-26.333.667-52.667 0-79-1.122-2.124-2.622-3.957-4.5-5.5-7.659-.5-15.326-.666-23-.5-2.928 1.091-5.094 3.091-6.5 6-.667 26.333-.667 52.667 0 79 1.167 2.5 3 4.333 5.5 5.5 7.659.5 15.326.666 23 .5z" fill="#b95c4e" image-rendering="optimizeQuality"/>
  <path d="m92.594 122c9.672.166 19.339 0 29-.5 2.5-1.167 4.333-3 5.5-5.5.667-26.667.667-53.333 0-80-1.251-2.881-3.417-4.714-6.5-5.5-16.838-.828-33.505-.662-50 .5 7.674-.166 15.341 0 23 .5 1.878 1.543 3.378 3.376 4.5 5.5.667 26.333.667 52.667 0 79-1.36 2.523-3.193 4.523-5.5 6z" fill="#a34f41" image-rendering="optimizeQuality"/>
  <path d="m186.59 122c3.62-1.458 6.12-4.125 7.5-8 .667-25.333.667-50.667 0-76-.786-3.083-2.619-5.249-5.5-6.5-7.659-.5-15.326-.666-23-.5-2.949 1.114-5.115 3.114-6.5 6-.667 26.333-.667 52.667 0 79 1.167 2.5 3 4.333 5.5 5.5 7.326.5 14.659.666 22 .5z" fill="#b95c4e" image-rendering="optimizeQuality"/>
  <path d="m186.59 122c10.339.166 20.672 0 31-.5l4.5-4.5c1.64-26.271 1.973-52.604 1-79-1.167-3.833-3.667-6.333-7.5-7.5-16.838-.828-33.505-.662-50 .5 7.674-.166 15.341 0 23 .5 2.881 1.251 4.714 3.417 5.5 6.5.667 25.333.667 50.667 0 76-1.38 3.875-3.88 6.542-7.5 8z" fill="#a24e40" image-rendering="optimizeQuality"/>
  <path d="m282.59 122c2.978-1.481 5.144-3.814 6.5-7 .667-26 .667-52 0-78-1.167-2.5-3-4.333-5.5-5.5-7.326-.5-14.659-.666-22-.5-3.917.748-6.417 3.082-7.5 7-.667 25.667-.667 51.333 0 77 1.5 2.833 3.667 5 6.5 6.5 7.326.5 14.659.666 22 .5z" fill="#b95c4e" image-rendering="optimizeQuality"/>
  <path d="m282.59 122c10.006.166 20.006 0 30-.5 2.814-1.494 4.814-3.66 6-6.5v-77c-1.483-3.647-4.15-6.147-8-7.5-16.505-.828-32.839-.662-49 .5 7.341-.166 14.674 0 22 .5 2.5 1.167 4.333 3 5.5 5.5.667 26 .667 52 0 78-1.356 3.186-3.522 5.519-6.5 7z" fill="#a34f41" image-rendering="optimizeQuality"/>
  <path d="m33.448 223.56c6.9892 1.5974 13.822 3.3321 20.496 5.2032-7.5513 17.369-14.563 35.06-21.036 53.072-2.8889 14.014 1.9655 24.594 14.563 31.739 31.148 9.6112 62.072 19.497 92.773 29.658-13.808 5.2323-28.192 7.4863-43.15 6.7641-24.437-7.9161-48.889-15.721-73.355-23.414-7.0757-1.5235-13.908-3.7785-20.496-6.7641-2.2572-1.9283-3.3359-4.3561-3.2363-7.2844 10.425-30.004 21.573-59.662 33.441-88.974z" fill="#d7d3d6" image-rendering="optimizeQuality" opacity=".993" stroke-width="1.0595"/>
  <path d="m53.489 228.77c5.6332 1.0406 11.268 2.0813 16.901 3.1219 0 .69409.35175 1.0406 1.0563 1.0406 27.155 6.428 54.267 13.018 81.335 19.772 29.775 7.4197 59.703 14.704 89.785 21.853 5.3586 2.0136 10.992 3.4008 16.901 4.1625 8.9584 2.7285 18.112 5.1563 27.464 7.2844 11.576 2.9377 23.195 5.7131 34.858 8.325 8.6616 2.5662 17.464 4.6474 26.407 6.2438 6.4983 14.888 13.011 29.805 19.541 44.747 1.7461 8.8589-1.951 13.021-11.091 12.488-49.465-10.84-99.111-20.899-148.94-30.178-23.318 4.8764-46.556 10.08-69.716 15.609-30.061-10.161-60.342-20.047-90.841-29.658-12.335-7.145-17.089-17.725-14.26-31.739 6.3378-18.012 13.204-35.703 20.598-53.072z" fill="#e7e5e7" image-rendering="optimizeQuality" opacity=".999" stroke-width="1.0484"/>
  <path d="m23.739 326.59c24.466 7.6934 48.918 15.498 73.355 23.414 14.958.72219 29.342-1.5318 43.15-6.7641 23.652-5.5299 47.384-10.733 71.198-15.609 50.886 9.2793 101.59 19.338 152.1 30.178v16.65c-50.122-9.8131-100.28-19.525-150.49-29.138-2.6969.17378-5.3938.34653-8.0906.52031-30.533 7.4499-61.097 14.734-91.694 21.853-5.3938.6941-10.788.6941-16.181 0-11.639-3.048-23.145-6.5175-34.52-10.406-9.9331-.49014-16.585 3.8462-19.957 13.008-.53938 51.336-.71953 102.67-.53938 154.01h-6.4725c-6.3808-2.8732-10.156-7.7298-11.327-14.569-.53938-61.05-.71953-122.1-.53938-183.15z" fill="#c176ff" image-rendering="optimizeQuality" opacity=".981" stroke-width="1.0595"/>
  <path d="m363.55 374.45c.18016 45.789 0 91.576-.53937 137.36-2.0885 5.6527-5.8641 9.8152-11.327 12.488h-309.6c-.18015-51.338 0-102.68.53938-154.01 3.3722-9.1617 10.024-13.498 19.957-13.008 11.375 3.8888 22.881 7.3583 34.52 10.406 5.3938.6941 10.788.6941 16.181 0 30.597-7.1189 61.161-14.403 91.694-21.853 2.6969-.17378 5.3938-.34653 8.0906-.52031 50.202 9.6123 100.36 19.324 150.49 29.138z" fill="#df91ff" image-rendering="optimizeQuality" opacity=".999" stroke-width="1.0595"/>
 </g>
</svg>
