<svg version="1.1" viewBox="0 0 115.52 133.79" xmlns="http://www.w3.org/2000/svg">
 <g transform="translate(-49.904 -52.108)">
  <g fill-rule="evenodd">
   <path d="m58.657 52.108h78.946c4.8492 0 8.7531 3.9039 8.7531 8.7531v97.817c0 4.8492-3.9039 8.7531-8.7531 8.7531h-78.946c-4.8492 0-8.7531-3.9039-8.7531-8.7531v-97.817c0-4.8492 3.9039-8.7531 8.7531-8.7531z" color="#000000" fill="#a35bfa" stroke-width=".291" style="-inkscape-stroke:none"/>
   <path transform="scale(.26458)" d="m625.21 588.68h-75.053c-.57275 0-1.1416.0145-1.707.043-.56542.0285-1.1281.0707-1.6855.12696-.55742.0563-1.1095.12754-1.6582.21093-.54874.0834-1.0934.17924-1.6328.28907-.53936.10982-1.0742.23357-1.6035.36914-.52932.13557-1.0537.28272-1.5723.44336-.51858.16063-1.0319.33451-1.5391.51953s-1.0069.38112-1.502.58984-.98451.43037-1.4668.66211-.95891.47444-1.4277.72852c-.46882.25407-.93008.51919-1.3848.79492s-.90194.56268-1.3418.85937c-.43985.2967-.87253.60294-1.2969.91993-.42435.31698-.8399.64387-1.248.98046s-.80794.68355-1.1992 1.0391c-.39128.35551-.77471.71999-1.1484 1.0938-.37372.37375-.73826.75517-1.0938 1.1465-.35548.39131-.7025.79299-1.0391 1.2012-.33656.40819-.66351.82368-.98047 1.248-.31695.42437-.62325.85699-.91992 1.2969-.29667.43989-.58367.88709-.85937 1.3418s-.54088.91591-.79493 1.3848c-.25404.46885-.4968.94542-.72851 1.4277-.23172.48232-.45146.97171-.66016 1.4668s-.4068.99672-.5918 1.5039c-.18499.50719-.35695 1.0185-.51757 1.5371s-.30976 1.0429-.44532 1.5723c-.13555.52933-.25737 1.0641-.36718 1.6035-.10981.53938-.20764 1.0841-.29102 1.6328-.0834.54874-.15271 1.1027-.20898 1.6602-.0563.55743-.0985 1.1182-.12696 1.6836-.0285.56542-.043 1.1343-.043 1.707v78.131l108.13-108.13z" color="#000000" fill="#E1E1E1" stroke-width="2.6116" style="-inkscape-stroke:none"/>
   <path d="m156.62 148.67h-19.858c-.15154 0-.30205.004-.45165.0114-.1496.008-.29848.0187-.44597.0336-.14748.0149-.29355.0337-.43873.0558-.14519.0221-.28931.0474-.43202.0765-.1427.0291-.28421.0618-.42426.0977s-.27879.0748-.416.1173c-.1372.0425-.27302.0885-.40721.13746-.13418.049-.2664.10084-.39739.15606-.13098.0552-.26048.11387-.38809.17519-.1276.0613-.25371.12552-.37775.19275-.12405.0672-.24609.13737-.36639.21032-.1203.073-.23864.14888-.35502.22738-.11637.0785-.23085.15953-.34313.2434-.11227.0839-.22222.17035-.33021.25941-.10799.0891-.21377.18085-.31729.27492-.10353.0941-.20498.1905-.30386.28939-.0989.0989-.19533.1998-.28939.30334-.094.10353-.18587.20981-.27492.31781-.089.108-.17555.21793-.25941.33021-.0839.11228-.1649.22675-.2434.34313-.0785.11639-.15443.23471-.22737.35502-.0729.12031-.14311.24233-.21033.36638-.0672.12405-.13144.25015-.19275.37776-.0613.12761-.11945.2571-.17467.38809-.0552.13099-.10763.26371-.15658.39791-.0489.13419-.0944.26948-.13694.40669-.0425.13721-.082.27594-.11782.416-.0359.14005-.0681.28155-.0971.42426-.0291.14271-.0549.28683-.077.43202-.0221.14518-.0404.29176-.0553.43924-.0149.14749-.0261.29585-.0336.44546-.008.1496-.0114.30011-.0114.45165v20.672l28.611-28.611z" color="#000000" fill="#E1E1E1" stroke-width=".691" style="-inkscape-stroke:none"/>
   <path transform="scale(.26458)" d="m293.75 266.72c-18.328 0-33.082 14.756-33.082 33.084v369.7c0 18.328 14.754 33.082 33.082 33.082h220.63l2.6973-2.6973v-78.131c0-.57274.0145-1.1416.043-1.707.0285-.56543.0707-1.1262.12696-1.6836.0563-.55742.1256-1.1114.20898-1.6602.0834-.54875.18121-1.0934.29102-1.6328.10981-.53937.23163-1.0742.36718-1.6035.13556-.52933.2847-1.0537.44532-1.5723s.33258-1.0299.51757-1.5371c.185-.50718.3831-1.0088.5918-1.5039s.42844-.98448.66016-1.4668c.23171-.48231.47447-.95888.72851-1.4277.25405-.46886.51923-.93006.79493-1.3848s.5627-.90191.85937-1.3418c.29667-.43988.60297-.8725.91992-1.2969.31696-.42437.64391-.83986.98047-1.248.33656-.40818.68358-.80986 1.0391-1.2012.35549-.39131.72003-.77273 1.0938-1.1465.37373-.37376.75716-.73824 1.1484-1.0938.39128-.35552.79107-.70248 1.1992-1.0391s.8237-.66348 1.248-.98046c.42434-.31699.85702-.62323 1.2969-.91993.43986-.29669.88712-.58364 1.3418-.85937s.91594-.54085 1.3848-.79492c.46883-.25408.94545-.49678 1.4277-.72852s.97173-.45339 1.4668-.66211.99478-.40482 1.502-.58984 1.0205-.3589 1.5391-.51953c.51858-.16064 1.043-.30779 1.5723-.44336.52931-.13557 1.0642-.25932 1.6035-.36914.53937-.10983 1.0841-.20568 1.6328-.28907.54873-.0834 1.1008-.15466 1.6582-.21093.55742-.0563 1.1201-.0985 1.6855-.12696.56543-.0285 1.1343-.043 1.707-.043h75.053v-288.87c0-18.328-14.756-33.084-33.084-33.084z" color="#000000" fill="#fff" stroke-width="2.6116" style="-inkscape-stroke:none"/>
  </g>
  <g fill="#d9d5d5" stroke-linecap="round">
   <path d="m94.262 91.258a2.3092 2.3092 0 00-2.3223 2.2949 2.3092 2.3092 0 002.2949 2.3242l46.209.2832a2.3092 2.3092 0 002.3223-2.2949 2.3092 2.3092 0 00-2.2949-2.3242z" color="#000000" style="-inkscape-stroke:none"/>
   <path d="m93.947 106.81a2.3092 2.3092 0 00-2.3242 2.2949 2.3092 2.3092 0 002.2949 2.3242l46.209.2832a2.3092 2.3092 0 002.3223-2.2949 2.3092 2.3092 0 00-2.2949-2.3223z" color="#000000" style="-inkscape-stroke:none"/>
   <path d="m94.23 122.99a2.3092 2.3092 0 00-2.3242 2.2949 2.3092 2.3092 0 002.2949 2.3223l46.209.28516a2.3092 2.3092 0 002.3242-2.2949 2.3092 2.3092 0 00-2.2949-2.3242z" color="#000000" style="-inkscape-stroke:none"/>
   <path d="m94.162 138.31a2.2151 2.2151 0 00-2.2559 2.1738 2.2151 2.2151 0 002.1738 2.2559l25.57.47265a2.2151 2.2151 0 002.2559-2.1738 2.2151 2.2151 0 00-2.1738-2.2559z" color="#000000" style="-inkscape-stroke:none"/>
  </g>
 </g>
</svg>
