<?xml version="1.0" encoding="UTF-8"?>
<svg version="1.1" viewBox="0 0 121.12 135.97" xmlns="http://www.w3.org/2000/svg">
 <g transform="translate(-45.259 -124.08)">
  <path d="m68.626 198.64.20671-65.732s.59443-5.75 5.9294-6.1154c5.3349-.36541 54.884-.0731 54.884-.0731s3.8002 0 6.1388 2.3386 26.602 25.871 26.602 25.871 1.4616.73082 1.4616 4.0926v78.782s-1.0231 5.2619-5.8465 6.1388-90.475-.58465-90.475-.58465z" color="#000000" fill="#fff" stroke-width="5.065" style="-inkscape-stroke:none"/>
  <path d="m104.21 124.09c-6.5301-.0137-13.227-.0162-18.633.008-5.4055.024-9.365.0607-10.988.17187-3.5645.24415-5.926 2.5272-7.0117 4.502-1.0857 1.9747-1.2637 3.8789-1.2637 3.8789l-.01367.12695-.20703 65.805-1.1602 47.268 2.5508.043s21.417.36716 43.441.62304c11.012.12795 22.176.22846 30.9.24219 4.3621.007 8.1133-.008 10.943-.0527 2.83-.0444 4.3728-.0289 5.6856-.26758 6.5155-1.1846 7.8789-8.1465 7.8789-8.1465l.0469-.24024v-79.025c0-2.0479-.46192-3.5702-1.0977-4.6191-.31787-.52449-.67156-.92359-.99023-1.2051-.0766-.0677-.10147-.0677-.18555-.1289-.0798-.0774-24.383-23.652-26.531-25.801-3.3086-3.3086-7.9297-3.0801-7.9297-3.0801-.0152-9e-5-12.383-.0742-25.436-.10157zm-.0117 5.0664c13.048.0274 25.432.0996 25.432.0996h.016s2.979.22904 4.3477 1.5977c2.5252 2.5251 26.629 25.896 26.629 25.896l.28125.27344.0508.0254c.0973.16196.36133.67438.36133 1.9766v78.418c-.0442.21507-.73698 3.4607-3.7676 4.0117.10692-.0194-2.0821.142-4.8594.18554-2.7773.0435-6.5094.0576-10.855.0508-8.692-.0137-19.844-.1124-30.848-.24024-20.714-.24066-38.565-.54512-40.865-.58398l1.0371-42.188v-.0273l.20703-65.52c.0048-.0376.11608-.95008.65039-1.9219.54521-.99161 1.1495-1.7674 2.9199-1.8887 1.0441-.0715 5.2786-.13427 10.664-.15821 5.3854-.0239 12.076-.0215 18.6-.008z" color="#000000" fill="#E1E1E1" style="-inkscape-stroke:none"/>
  <path d="m106.88 229.24a30.809 30.809 0 01-30.809 30.809 30.809 30.809 0 01-30.809-30.809 30.809 30.809 0 0130.809-30.809 30.809 30.809 0 0130.809 30.809z" color="#000000" fill="#a35bfa" stroke-width="0" style="-inkscape-stroke:none;paint-order:markers fill stroke"/>
  <g transform="matrix(1.0179 0 0 1.0179 75.232 33.889)" fill="#fff" stroke-linecap="round" stroke-linejoin="round" stroke-width="3">
   <path d="m.38477 171.72a1.5003 1.5003 0 00-1.1504.57227l-10.543 13.436a1.5001 1.5001 0 00.25391 2.1074 1.5001 1.5001 0 002.1055-.25391l9.4141-11.994 10.801 12.66a1.5001 1.5001 0 002.1152.16797 1.5001 1.5001 0 00.16797-2.1152l-11.992-14.055a1.5003 1.5003 0 00-1.1719-.52539z" color="#000000" style="-inkscape-stroke:none"/>
   <path d="m.39648 171.72a1.5 1.5 0 00-1.4824 1.5176l.41211 37.414a1.5 1.5 0 001.5176 1.4824 1.5 1.5 0 001.4824-1.5156l-.41211-37.414a1.5 1.5 0 00-1.5176-1.4844z" color="#000000" style="-inkscape-stroke:none"/>
  </g>
 </g>
</svg>
