<?xml version="1.0" encoding="UTF-8"?>
<svg width="118.6mm" height="114.76mm" version="1.1" viewBox="0 0 118.6 114.76" xmlns="http://www.w3.org/2000/svg">
 <g transform="translate(-60.749 -156.82)">
  <g transform="matrix(4.4318 0 0 4.4318 18.832 115.81)" fill="#8638dd">
   <path d="m36.22 23.107a5.4341 5.4341 0 01-5.4341 5.4341 5.4341 5.4341 0 01-5.4341-5.4341 5.4341 5.4341 0 015.4341-5.4341 5.4341 5.4341 0 015.4341 5.4341z"/>
   <path d="m24.534 14.095a4.8431 4.8431 0 01-4.8431 4.8431 4.8431 4.8431 0 01-4.8431-4.8431 4.8431 4.8431 0 014.8431-4.8431 4.8431 4.8431 0 014.8431 4.8431z"/>
   <path d="m22.374 28.69a6.4575 6.4575 0 01-6.4575 6.4575 6.4575 6.4575 0 01-6.4575-6.4575 6.4575 6.4575 0 016.4575-6.4575 6.4575 6.4575 0 016.4575 6.4575z"/>
  </g>
 </g>
</svg>
