<?xml version="1.0" encoding="UTF-8"?>
<svg width="169.32mm" height="41.501mm" version="1.1" viewBox="0 0 169.32 41.501" xmlns="http://www.w3.org/2000/svg">
 <g transform="translate(-2.6747 -3.792)">
  <path d="m2.6747 3.792h169.32v41.501h-169.32z" fill="#fff" fill-rule="evenodd" stroke-width=".2823"/>
  <g transform="matrix(3.8199 0 0 3.6763 117.96 880.72)" fill="#8641dd" stroke-width=".20737" aria-label="open">
   <path d="m-12.193-231.56q-1.0645 1.0507-2.5991 1.0507t-2.5991-1.0507q-1.0507-1.0645-1.0507-2.5991t1.0507-2.5853q1.0645-1.0645 2.5991-1.0645t2.5991 1.0645q1.0645 1.0507 1.0645 2.5853t-1.0645 2.5991zm-3.9401-1.2304q.53917.53917 1.341.53917t1.341-.53917.53917-1.3687q0-.8295-.53917-1.3687t-1.341-.53917-1.341.53917q-.52535.53917-.52535 1.3687 0 .82949.52535 1.3687z"/>
   <path d="m-5.8476-237.81q1.3963 0 2.3779 1.0645.99539 1.0507.99539 2.5853t-.99539 2.5991q-.98157 1.0507-2.3779 1.0507-1.4516 0-2.2396-1.0092v3.5806h-1.7834v-9.6774h1.7834v.81567q.78802-1.0092 2.2396-1.0092zm-1.7005 5.0599q.53917.53917 1.3687.53917t1.3687-.53917q.553-.553.553-1.4101 0-.85715-.553-1.3963-.53917-.55299-1.3687-.55299t-1.3687.55299q-.53917.53917-.53917 1.3963 0 .85714.53917 1.4101z"/>
   <path d="m.29069-233.43q.35945 1.2995 1.9493 1.2995 1.023 0 1.5484-.69125l1.4378.8295q-1.023 1.4793-3.0138 1.4793-1.7143 0-2.7512-1.0369t-1.0369-2.6129q0-1.5622 1.023-2.5991 1.023-1.0507 2.6267-1.0507 1.5207 0 2.5023 1.0507.99539 1.0507.99539 2.5991 0 .34562-.069125.73272zm-.02765-1.3825h3.5253q-.15207-.70507-.63595-1.0507-.47005-.34562-1.0783-.34562-.71889 0-1.1889.37327-.47005.35945-.62212 1.023z"/>
   <path d="m10.659-237.81q1.1336 0 1.8664.76037.74654.76037.74654 2.1014v4.2442h-1.7834v-4.023q0-.69125-.37327-1.0507-.37327-.37327-.99539-.37327-.69124 0-1.106.42857t-.41475 1.2857v3.7327h-1.7834v-6.9124h1.7834v.7742q.64977-.96775 2.0599-.96775z"/>
  </g>
  <path d="m138.43 36.287c-.93404.0187-1.7082.34251-2.3238.9702-.63545.64159-.95278 1.4412-.95278 2.3974 0 .95004.3174 1.7496.95278 2.3974.63544.64777 1.4401.97215 2.4148.97215.59227 0 1.1351-.13716 1.6286-.40862.49357-.27768.88041-.65047 1.1581-1.1193l-1.1019-.63904c-.15439.28368-.38325.5092-.68555.67584-.29604.16039-.62907.24021-.99924.24021-.62926 0-1.1373-.19599-1.526-.59066-.3825-.39483-.5732-.90481-.5732-1.5279 0-.6293.19074-1.1409.5732-1.5357.38868-.39482.89672-.59257 1.526-.59257.37024 0 .70312.0832.99924.24995.29605.16039.52516.38587.68555.67584l1.1019-.63908c-.27769-.46887-.66607-.83818-1.1658-1.1096-.49357-.27769-1.0348-.41638-1.6209-.41638-.03 0-.0607-.00063-.0911 0zm21.267 0c-.934.0187-1.7102.34251-2.3258.9702-.63545.64159-.95278 1.4412-.95278 2.3974 0 .95004.31741 1.7496.95278 2.3974.63545.64777 1.442.97215 2.4168.97215.59224 0 1.135-.13716 1.6286-.40862.49353-.27768.87847-.65047 1.1561-1.1193l-1.1019-.63904c-.1544.28368-.3813.5092-.6836.67584-.29605.16039-.62908.24021-.99925.24021-.62926 0-1.1392-.19599-1.5279-.59066-.3825-.39483-.57321-.90481-.57321-1.5279 0-.6293.19075-1.1409.57321-1.5357.38868-.39482.89866-.59257 1.5279-.59257.37024 0 .70313.0832.99925.24995.29604.16039.52321.38587.6836.67584l1.1019-.63908c-.27768-.46887-.6661-.83818-1.1658-1.1096-.49354-.27769-1.0328-.41638-1.6189-.41638-.03 0-.0607-.00063-.0911 0zm-29.662.12966v6.4776h1.2781v-2.1282h1.1386c.62312 0 1.1468-.20985 1.5725-.62937.42567-.41952.63905-.93457.63905-1.5454 0-.61076-.21323-1.1258-.63905-1.5454-.4257-.41952-.94936-.62933-1.5725-.62933zm13.724 0-2.2677 6.4776h1.3788l.38925-1.1658h2.5814l.38924 1.1658h1.3885l-2.2773-6.4776zm6.8011 0v6.4776h1.2781v-2.684h2.4052v2.684h1.2684v-6.4776h-1.2684v2.5717h-2.4052v-2.5717zm14.464 0-2.2657 6.4776h1.3788l.38733-1.1658h2.5833l.38729 1.1658h1.3885l-2.2754-6.4776zm-33.711 1.1929h1.1386c.27131 0 .49503.0918.67393.27693.17875.18512.26906.42113.26906.70489 0 .27768-.0903.51185-.26906.70297-.17875.18512-.40247.27693-.67393.27693h-1.1386zm13.242.27693.88888 2.6472h-1.7777zm21.265 0 .88889 2.6472h-1.7758z" fill="#8641dd" stroke-width=".9915"/>
  <path d="m45.681 42.636h-36.993" color="#000000" fill="#f6effa" stroke-dashoffset="16" stroke-width="3.2458" style="-inkscape-stroke:none"/>
 </g>
 <g transform="matrix(.88073 0 0 .88073 -22.486 -56.151)" stroke-dashoffset="16">
  <path d="m30.736 70.867v34.329" color="#000000" fill="#f6effa" stroke-width="3.0121" style="-inkscape-stroke:none"/>
  <path d="m63.557 103.77h-34.329" color="#000000" fill="#666" stroke-width="3.0121" style="-inkscape-stroke:none"/>
  <path d="m30.736 70.867v36.993" color="#000000" fill="#f6effa" stroke-width="3.2458" style="-inkscape-stroke:none"/>
  <path d="m29.113 70.867v36.992h3.2461v-36.992z" color="#000000" fill="#666" style="-inkscape-stroke:none"/>
 </g>
 <g transform="matrix(1.1765 0 0 1.1765 -2.4908 -7.1192)">
  <circle cx="30.786" cy="23.107" r="5.4341" fill="#a473da"/>
  <circle cx="19.691" cy="14.095" r="4.8431" fill="#cba4f7"/>
  <circle cx="15.916" cy="28.69" r="6.4575" fill="#8638dd"/>
 </g>
 <g fill="#666">
  <g transform="matrix(.88073 0 0 .88073 -22.486 -56.151)" fill-rule="evenodd">
   <path d="m30.736 67.121 3.2458 5.6153h-6.4917z" color="#000000" stroke-width=".64917pt" style="-inkscape-stroke:none"/>
   <path d="m30.736 66.256-.375.64844-3.6211 6.2656h7.9922zm0 1.7305 2.4961 4.3184h-4.9922z" color="#000000" style="-inkscape-stroke:none"/>
  </g>
  <path d="m3.1529 36.06v2.8591h32.579v-2.8591z" color="#000000" stroke-dashoffset="16" stroke-width=".88073" style="-inkscape-stroke:none"/>
  <g transform="matrix(.88073 0 0 .88073 -22.486 -56.151)" fill-rule="evenodd">
   <path d="m69.849 106.32-5.6153 3.2458v-6.4917z" color="#000000" stroke-width=".64917pt" style="-inkscape-stroke:none"/>
   <path d="m63.801 102.33v7.9922l6.9141-3.9961-.64844-.375zm.86524 1.5 4.3184 2.4961-4.3184 2.4961z" color="#000000" style="-inkscape-stroke:none"/>
  </g>
 </g>
</svg>
