<?xml version="1.0" encoding="UTF-8"?>
<svg width="189.91mm" height="64.294mm" version="1.1" viewBox="0 0 189.91 64.294" xmlns="http://www.w3.org/2000/svg" xmlns:xlink="http://www.w3.org/1999/xlink">
 <defs>
  <linearGradient id="a" x1="17.587" x2="208.09" y1="198.34" y2="198.34" gradientUnits="userSpaceOnUse">
   <stop stop-color="#8d24d8" offset="0"/>
   <stop stop-color="#8d53d8" offset=".50278"/>
   <stop stop-color="#8d74d8" offset="1"/>
  </linearGradient>
 </defs>
 <g transform="translate(-17.852 -167.65)">
  <path d="m17.852 167.65h189.91v64.294h-189.91z" fill="url(#a)" stroke-width="1.0214"/>
  <g fill="#fff">
   <path d="m59.376 180.31c5.825.0225 10.319 4.1698 10.51 9.0929.036 5.1989-5.2383 9.1978-10.362 9.3426-6.2462-.007-10.779-4.253-10.642-8.9474.15353-5.2551 4.2986-9.284 10.493-9.4881z"/>
   <path d="m34.945 195.49c7.0116.26719 12.004 4.784 12.166 12.935.38385 5.5032-5.1062 9.7915-11.392 9.6144-8.875-1.0974-11.666-5.7795-11.228-11.281.50408-6.3256 5.3218-11.396 10.454-11.268z"/>
   <path d="m64.346 206.69s-6.8221 0-6.8221 5.9839 6.5784 5.4852 6.5784 5.4852 5.3602.2492 5.3602-5.9839c0-6.2332-5.1166-5.4852-5.1166-5.4852z"/>
   <path d="m98.31 206.47q-4.0663 3.8627-9.9281 3.8627t-9.9281-3.8627q-4.0135-3.9135-4.0135-9.555 0-5.6416 4.0135-9.5042 4.0663-3.9135 9.9281-3.9135t9.9281 3.9135q4.0663 3.8627 4.0663 9.5042 0 5.6415-4.0663 9.555zm-15.051-4.5234q2.0596 1.9822 5.1225 1.9822t5.1225-1.9822q2.0596-1.9822 2.0596-5.0316 0-3.0495-2.0596-5.0317-2.0596-1.9822-5.1225-1.9822t-5.1225 1.9822q-2.0067 1.9822-2.0067 5.0317 0 3.0495 2.0067 5.0316z"/>
   <path d="m122.55 183.5q5.3337 0 9.0832 3.9135 3.8023 3.8627 3.8023 9.5042 0 5.6415-3.8023 9.555-3.7494 3.8627-9.0832 3.8627-5.545 0-8.5551-3.7102v13.164h-6.8124v-35.577h6.8124v2.9987q3.0101-3.7102 8.5551-3.7102zm-6.4955 18.602q2.0596 1.9822 5.2281 1.9822t5.2281-1.9822q2.1124-2.033 2.1124-5.1841 0-3.1512-2.1124-5.1333-2.0596-2.033-5.2281-2.033t-5.2281 2.033q-2.0596 1.9822-2.0596 5.1333 0 3.1511 2.0596 5.1841z"/>
   <path d="m146 199.61q1.373 4.7775 7.4461 4.7775 3.9079 0 5.9146-2.5412l5.4922 3.0495q-3.9079 5.4382-11.512 5.4382-6.5483 0-10.509-3.8118-3.9607-3.8118-3.9607-9.6058 0-5.7432 3.9079-9.555 3.9079-3.8627 10.034-3.8627 5.809 0 9.5585 3.8627 3.8023 3.8627 3.8023 9.555 0 1.2706-.26405 2.6937zm-.10562-5.0825h13.466q-.5809-2.5921-2.4292-3.8627-1.7955-1.2706-4.1191-1.2706-2.7461 0-4.5416 1.3723-1.7955 1.3214-2.3764 3.761z"/>
   <path d="m185.6 183.5q4.3304 0 7.1292 2.7954 2.8517 2.7954 2.8517 7.7254v15.603h-6.8124v-14.79q0-2.5412-1.4258-3.8627-1.4258-1.3723-3.8023-1.3723-2.6405 0-4.2247 1.5756-1.5843 1.5756-1.5843 4.7267v13.723h-6.8124v-25.412h6.8124v2.8462q2.482-3.5578 7.8686-3.5578z"/>
   <path d="m165.36 213.34c-.93404.0187-1.7082.34251-2.3238.9702-.63545.64159-.95278 1.4412-.95278 2.3974 0 .95004.3174 1.7496.95278 2.3974.63544.64777 1.4401.97215 2.4148.97215.59227 0 1.1351-.13716 1.6286-.40862.49357-.27768.88041-.65047 1.1581-1.1193l-1.1019-.63904c-.15439.28368-.38325.5092-.68555.67584-.29604.16039-.62907.24021-.99924.24021-.62926 0-1.1373-.19599-1.526-.59066-.3825-.39483-.5732-.90481-.5732-1.5279 0-.6293.19074-1.1409.5732-1.5357.38868-.39482.89672-.59257 1.526-.59257.37024 0 .70312.0832.99924.24995.29605.16039.52516.38587.68555.67584l1.1019-.63908c-.27769-.46887-.66607-.83818-1.1658-1.1096-.49357-.27769-1.0348-.41638-1.6209-.41638-.03 0-.0607-.00063-.0911 0zm21.267 0c-.934.0187-1.7102.34251-2.3258.9702-.63545.64159-.95278 1.4412-.95278 2.3974 0 .95004.31741 1.7496.95278 2.3974.63545.64777 1.442.97215 2.4168.97215.59224 0 1.135-.13716 1.6286-.40862.49353-.27768.87847-.65047 1.1561-1.1193l-1.1019-.63904c-.1544.28368-.3813.5092-.6836.67584-.29605.16039-.62908.24021-.99925.24021-.62926 0-1.1392-.19599-1.5279-.59066-.3825-.39483-.57321-.90481-.57321-1.5279 0-.6293.19075-1.1409.57321-1.5357.38868-.39482.89866-.59257 1.5279-.59257.37024 0 .70313.0832.99925.24995.29604.16039.52321.38587.6836.67584l1.1019-.63908c-.27768-.46887-.6661-.83818-1.1658-1.1096-.49354-.27769-1.0328-.41638-1.6189-.41638-.03 0-.0607-.00063-.0911 0zm-29.662.12966v6.4776h1.2781v-2.1282h1.1386c.62312 0 1.1468-.20985 1.5725-.62937.42567-.41952.63905-.93457.63905-1.5454 0-.61076-.21323-1.1258-.63905-1.5454-.4257-.41952-.94936-.62933-1.5725-.62933zm13.724 0-2.2677 6.4776h1.3788l.38925-1.1658h2.5814l.38924 1.1658h1.3885l-2.2773-6.4776zm6.8011 0v6.4776h1.2781v-2.684h2.4052v2.684h1.2684v-6.4776h-1.2684v2.5717h-2.4052v-2.5717zm14.464 0-2.2657 6.4776h1.3788l.38733-1.1658h2.5833l.38729 1.1658h1.3885l-2.2754-6.4776zm-33.711 1.1929h1.1386c.27131 0 .49503.0918.67393.27693.17875.18512.26906.42113.26906.70489 0 .27768-.0903.51185-.26906.70297-.17875.18512-.40247.27693-.67393.27693h-1.1386zm13.242.27693.88888 2.6472h-1.7777zm21.265 0 .88889 2.6472h-1.7758z"/>
  </g>
 </g>
</svg>
